<svg width="51" height="65" viewBox="0 0 51 65" fill="none" xmlns="http://www.w3.org/2000/svg">
<path d="M0.0600391 39.124C1.36004 39.854 2.61004 39.854 3.90004 39.354C4.49004 39.134 4.96004 39.384 5.21004 39.944C5.55004 40.714 5.84004 41.504 6.15004 42.294C6.36004 42.834 6.53004 43.394 6.77004 43.914C7.99004 46.604 10.99 47.564 13.54 46.034C14.27 45.594 14.88 44.944 15.52 44.354C15.98 43.924 16.36 43.414 16.8 42.974C18.02 41.774 19.78 41.884 20.85 43.234C21.21 43.684 21.5 44.194 21.8 44.684C23.19 47.024 25.23 48.144 27.95 48.224C30.61 48.304 32.41 47.124 33.61 44.834C34.07 43.964 34.55 43.084 35.12 42.284C36.54 40.264 38.88 39.954 40.74 41.564C41.92 42.584 43.15 43.414 44.75 43.554C44.9 43.564 45.14 43.934 45.14 44.144C45.17 45.764 45.16 47.384 45.16 49.004C45.16 49.224 45.16 49.444 45.18 49.654C45.24 50.314 45.64 50.674 46.26 50.714C46.89 50.744 47.34 50.394 47.43 49.754C47.51 49.234 47.48 48.694 47.48 48.164C47.48 46.644 47.47 45.124 47.5 43.594C47.5 43.344 47.61 42.994 47.8 42.864C48.87 42.104 49.65 41.114 50.26 39.704C50.29 40.124 50.31 40.344 50.31 40.564C50.31 45.804 50.29 51.054 50.33 56.294C50.33 57.454 50 58.454 49.11 59.104C47.83 60.034 46.51 60.954 45.07 61.604C41.27 63.324 37.21 64.054 33.09 64.524C28.27 65.074 23.45 65.124 18.62 64.664C13.7 64.194 8.85004 63.374 4.36004 61.174C3.21004 60.614 2.15004 59.804 1.14004 58.994C0.410039 58.414 0.0400391 57.564 0.0400391 56.574C0.0500391 50.924 0.0400391 45.264 0.0400391 39.614C0.0400391 39.494 0.0500391 39.374 0.0700391 39.114L0.0600391 39.124ZM47.47 53.764C47.47 53.594 47.47 53.424 47.47 53.264C47.41 52.474 46.96 52.004 46.26 52.034C45.59 52.054 45.19 52.514 45.16 53.284C45.16 53.454 45.16 53.624 45.16 53.784C45.16 54.954 45.54 55.514 46.32 55.504C47.1 55.504 47.48 54.914 47.48 53.764H47.47Z" fill="#E457B7"/>
<path d="M0.0400391 23.604C3.57004 26.264 7.51004 27.444 11.57 28.274C19.22 29.844 26.92 29.994 34.64 28.984C38.77 28.444 42.83 27.594 46.63 25.804C47.87 25.224 49.02 24.474 50.25 23.784C50.26 23.914 50.29 24.114 50.3 24.314C50.3 27.674 50.31 31.034 50.29 34.394C50.29 34.744 50.11 35.114 49.94 35.434C49.2 36.834 48.43 38.224 47.68 39.624C46.89 41.094 45.28 41.724 43.91 41.004C43.36 40.714 42.86 40.314 42.4 39.894C39.8 37.514 35.92 37.714 33.66 40.434C33.03 41.184 32.56 42.074 32.04 42.914C31.67 43.504 31.34 44.124 30.95 44.704C30.43 45.464 29.68 45.814 28.74 45.894C26.52 46.084 24.81 45.354 23.73 43.334C23.53 42.954 23.25 42.614 23.02 42.244C21 39.094 16.79 39.124 14.46 42.024C13.99 42.604 13.49 43.174 12.93 43.664C11.34 45.044 9.54004 44.614 8.77004 42.684C8.40004 41.764 8.13004 40.814 7.75004 39.894C7.52004 39.344 7.24004 38.794 6.90004 38.304C6.09004 37.144 4.95004 36.794 3.59004 37.054C3.38004 37.094 3.17004 37.164 2.96004 37.224C1.34004 37.654 0.0500391 36.654 0.0500391 34.964C0.0500391 31.484 0.0500391 28.004 0.0500391 24.524V23.624L0.0400391 23.604ZM45.16 32.264C45.16 33.274 45.15 34.284 45.16 35.304C45.17 36.114 45.61 36.594 46.31 36.584C47.01 36.584 47.47 36.114 47.47 35.294C47.49 33.274 47.49 31.244 47.47 29.224C47.47 28.414 47 27.944 46.3 27.934C45.61 27.934 45.17 28.414 45.16 29.224C45.15 30.234 45.16 31.244 45.16 32.264Z" fill="#E457B7"/>
<path d="M35.77 11.764C40.04 12.534 44.26 13.434 47.94 15.904C48.61 16.354 49.22 16.944 49.72 17.574C50.52 18.574 50.57 19.744 49.71 20.694C48.88 21.604 47.89 22.444 46.83 23.064C43.9 24.774 40.64 25.624 37.33 26.214C28.58 27.764 19.83 27.724 11.13 25.814C8.10002 25.144 5.15002 24.234 2.54002 22.484C1.83002 22.004 1.17002 21.394 0.630022 20.734C-0.199978 19.704 -0.219978 18.554 0.630022 17.544C1.24002 16.814 1.96002 16.104 2.78002 15.644C4.20002 14.834 5.72002 14.214 7.22002 13.564C7.43002 13.474 7.84002 13.564 8.03002 13.724C11.45 16.604 15.32 17.534 19.67 16.494C19.88 16.444 20.21 16.494 20.37 16.644C25.6 21.194 33.75 18.754 35.62 12.084C35.64 11.994 35.7 11.914 35.77 11.774V11.764Z" fill="#E457B7"/>
<path d="M26.6 2.44403C30.59 2.44403 33.74 5.59403 33.73 9.56403C33.73 13.464 30.54 16.634 26.6 16.644C22.65 16.644 19.46 13.454 19.47 9.50403C19.49 5.56403 22.64 2.44403 26.59 2.45403L26.6 2.44403ZM32.62 9.29403C32.52 7.40403 31.72 5.86403 30.23 4.70403C29.65 4.24403 28.96 4.32403 28.55 4.82403C28.14 5.32403 28.21 6.03403 28.77 6.49403C29.72 7.27403 30.23 8.24403 30.31 9.47403C30.37 10.284 30.87 10.754 31.53 10.714C32.23 10.674 32.65 10.124 32.62 9.28403V9.29403Z" fill="#E457B7"/>
<path d="M19.29 3.24403C18.6 4.59403 17.94 5.86403 17.25 7.21403C17.17 7.15403 16.99 7.02403 16.8 6.90403C15.15 5.86403 13.51 4.79403 11.83 3.79403C11.04 3.32403 10.35 3.51403 10.02 4.14403C9.68001 4.79403 9.99001 5.35403 10.76 5.84403C12.77 7.13403 14.75 8.46403 16.71 9.81403C16.96 9.98403 17.1 10.374 17.2 10.694C17.57 11.884 17.9 13.084 18.27 14.364C17.25 14.624 16.08 14.624 14.93 14.444C9.05001 13.574 5.17001 8.03403 6.33001 2.22403C6.43001 1.71403 6.65001 1.38403 7.13001 1.13403C10.97 -0.885969 15.93 -0.155969 18.99 2.91403C19.12 3.04403 19.24 3.19403 19.28 3.24403H19.29Z" fill="#E457B7"/>
</svg>
